<?xml version="1.0" encoding="utf-8"?>
<!-- Generator: Adobe Illustrator 21.1.0, SVG Export Plug-In . SVG Version: 6.00 Build 0)  -->
<svg version="1.1" id="Layer_1" xmlns="http://www.w3.org/2000/svg" xmlns:xlink="http://www.w3.org/1999/xlink" x="0px" y="0px"
	 viewBox="0 0 300.3 54.5" style="enable-background:new 0 0 300.3 54.5;" xml:space="preserve">
<style type="text/css">
	.st0{fill:url(#SVGID_1_);}
	.st1{fill:#1E2021;}
	.st2{fill:url(#SVGID_2_);}
	.st3{fill:url(#SVGID_3_);}
	.st4{fill:url(#SVGID_4_);}
	.st5{fill:url(#SVGID_5_);}
	.st6{fill:url(#SVGID_6_);}
	.st7{fill:url(#SVGID_7_);}
	.st8{fill:url(#SVGID_8_);}
	.st9{fill:url(#SVGID_9_);}
	.st10{fill:url(#SVGID_10_);}
</style>
<g>
	
		<linearGradient id="SVGID_1_" gradientUnits="userSpaceOnUse" x1="30.0737" y1="588.3001" x2="30.0737" y2="534.0357" gradientTransform="matrix(1 0 0 1 0 -534)">
		<stop  offset="0" style="stop-color:#1E2021"/>
		<stop  offset="1" style="stop-color:#222425"/>
	</linearGradient>
	<path class="st0" d="M12.9,21.1l17.5,11.4l23.2-12.7v6.6c0,16-9.6,27.8-26,27.8C11.8,54.1,0,43,0,27S12,0.1,27.6,0.1
		c7.2,0,13.3,2,17.7,5.7l14.9,1.1l-15.7,9.4c-3.3-5.5-9.6-9-16.8-9c-10.9,0-19.5,7.9-19.5,19.9s8.5,19.9,19.5,19.9
		c9.4,0,15.5-6.1,17.3-14.7l-14.2,7.2L12.9,28.3V21.1z"/>
	<circle class="st1" cx="35" cy="14.3" r="1.5"/>
	
		<linearGradient id="SVGID_2_" gradientUnits="userSpaceOnUse" x1="30.0737" y1="588.3001" x2="30.0737" y2="534.0357" gradientTransform="matrix(1 0 0 1 0 -534)">
		<stop  offset="0" style="stop-color:#1E2021"/>
		<stop  offset="1" style="stop-color:#222425"/>
	</linearGradient>
	<path class="st2" d="M12.9,21.1l17.5,11.4l23.2-12.7v6.6c0,16-9.6,27.8-26,27.8C11.8,54.1,0,43,0,27S12,0.1,27.6,0.1
		c5.9,0,10.9,1.3,15.1,3.7c0.9,0.7,2,1.3,2.6,2l14.9,1.1l-15.7,9.4c-3.3-5.5-9.6-9-16.8-9c-10.9,0-19.5,7.9-19.5,19.9
		s8.5,19.9,19.5,19.9c9.4,0,15.5-6.1,17.3-14.7l-14.2,7.2L12.9,28.3V21.1z"/>
	<circle class="st1" cx="35" cy="14.3" r="1.5"/>
	<circle class="st1" cx="35" cy="14.3" r="1.5"/>
	<g>
		
			<linearGradient id="SVGID_3_" gradientUnits="userSpaceOnUse" x1="73.0519" y1="588.4274" x2="73.0519" y2="557.0881" gradientTransform="matrix(1 0 0 1 0 -534)">
			<stop  offset="0" style="stop-color:#1E2021"/>
			<stop  offset="1" style="stop-color:#222425"/>
		</linearGradient>
		<path class="st3" d="M73.1,23.1c8.7,0,15.7,6.3,15.7,15.7s-7,15.7-15.7,15.7s-15.7-6.3-15.7-15.7S64.3,23.1,73.1,23.1z M73.1,48.4
			c5.2,0,9.2-3.9,9.2-9.6s-3.9-9.6-9.2-9.6c-5.2,0-9.2,3.9-9.2,9.6S67.8,48.4,73.1,48.4z"/>
		
			<linearGradient id="SVGID_4_" gradientUnits="userSpaceOnUse" x1="108.3748" y1="588.4274" x2="108.3748" y2="557.0881" gradientTransform="matrix(1 0 0 1 0 -534)">
			<stop  offset="0" style="stop-color:#1E2021"/>
			<stop  offset="1" style="stop-color:#222425"/>
		</linearGradient>
		<path class="st4" d="M108.5,23.1c8.7,0,15.7,6.3,15.7,15.7s-7,15.7-15.7,15.7s-16-6.3-16-15.7S99.7,23.1,108.5,23.1z M108.5,48.4
			c5.2,0,9.2-3.9,9.2-9.6s-3.9-9.6-9.2-9.6s-9.2,3.9-9.2,9.6S103.2,48.4,108.5,48.4z"/>
		
			<linearGradient id="SVGID_5_" gradientUnits="userSpaceOnUse" x1="143.8072" y1="588.4274" x2="143.8072" y2="538.2856" gradientTransform="matrix(1 0 0 1 0 -534)">
			<stop  offset="0" style="stop-color:#1E2021"/>
			<stop  offset="1" style="stop-color:#222425"/>
		</linearGradient>
		<path class="st5" d="M142.8,23.1c4.4,0,7.9,2.4,10.1,6.1V4.3h6.6v49h-6.6v-5c-2.2,3.9-5.9,6.1-10.1,6.1c-7.9,0-14.7-5.7-14.7-15.7
			S134.9,23.1,142.8,23.1z M144.1,48.4c4.4,0,9-3.1,9-9.6s-4.6-9.6-9-9.6c-5.2,0-9.2,3.7-9.2,9.6S138.7,48.4,144.1,48.4z"/>
		
			<linearGradient id="SVGID_6_" gradientUnits="userSpaceOnUse" x1="183.3952" y1="588.4274" x2="183.3952" y2="538.2856" gradientTransform="matrix(1 0 0 1 0 -534)">
			<stop  offset="0" style="stop-color:#1E2021"/>
			<stop  offset="1" style="stop-color:#222425"/>
		</linearGradient>
		<path class="st6" d="M184.4,54.3c-4.4,0-7.9-2.4-10.1-6.1v5h-6.6v-49h6.6v24.9c2.2-3.9,5.9-6.1,10.1-6.1c7.9,0,14.7,5.7,14.7,15.7
			S192.3,54.3,184.4,54.3z M183.1,29c-4.4,0-9,3.1-9,9.6s4.6,9.6,9,9.6c5.2,0,9.2-3.7,9.2-9.6C192.5,32.7,188.5,29,183.1,29z"/>
		
			<linearGradient id="SVGID_7_" gradientUnits="userSpaceOnUse" x1="207.8916" y1="587.1715" x2="207.8916" y2="542.9905" gradientTransform="matrix(1 0 0 1 0 -534)">
			<stop  offset="0" style="stop-color:#1E2021"/>
			<stop  offset="1" style="stop-color:#222425"/>
		</linearGradient>
		<path class="st7" d="M208,9.1c2.4,0,4.2,1.7,4.2,3.9s-2,4.2-4.2,4.2s-4.4-1.7-4.4-4.2S205.6,9.1,208,9.1z M211.3,24.4v28.9h-6.6
			V24.4H211.3z"/>
		
			<linearGradient id="SVGID_8_" gradientUnits="userSpaceOnUse" x1="228.5605" y1="587.1715" x2="228.5605" y2="557.0881" gradientTransform="matrix(1 0 0 1 0 -534)">
			<stop  offset="0" style="stop-color:#1E2021"/>
			<stop  offset="1" style="stop-color:#222425"/>
		</linearGradient>
		<path class="st8" d="M231,29c-3.5,0-4.8,2.4-4.8,6.6V53h-7V24.4h7v3.3c1.7-2.8,4.2-4.6,6.3-4.6c2,0,3.9,0.4,5.5,2l-2.8,5.5
			C233.6,29.4,232.5,29,231,29z"/>
		
			<linearGradient id="SVGID_9_" gradientUnits="userSpaceOnUse" x1="255.5721" y1="588.4274" x2="255.5721" y2="538.2856" gradientTransform="matrix(1 0 0 1 0 -534)">
			<stop  offset="0" style="stop-color:#1E2021"/>
			<stop  offset="1" style="stop-color:#222425"/>
		</linearGradient>
		<path class="st9" d="M254.6,23.1c4.4,0,7.9,2.4,10.1,6.1V4.3h6.6v49h-6.6v-5c-2.2,3.9-5.9,6.1-10.1,6.1c-7.9,0-14.7-5.7-14.7-15.7
			S246.7,23.1,254.6,23.1z M255.9,48.4c4.4,0,9-3.1,9-9.6s-4.6-9.6-9-9.6c-5.2,0-9.2,3.7-9.2,9.6S250.7,48.4,255.9,48.4z"/>
		
			<linearGradient id="SVGID_10_" gradientUnits="userSpaceOnUse" x1="288.7079" y1="588.4274" x2="288.7079" y2="557.0881" gradientTransform="matrix(1 0 0 1 0 -534)">
			<stop  offset="0" style="stop-color:#1E2021"/>
			<stop  offset="1" style="stop-color:#222425"/>
		</linearGradient>
		<path class="st10" d="M289.1,48.4c2.8,0,4.4-1.1,4.4-3.1c0-2.4-2.4-3.7-5.9-4.8c-3.9-1.3-9.2-3.7-9.2-9.2s5-8.3,10.3-8.3
			c5.2,0,9.8,3.1,10.9,6.3l-5.2,2.6c-1.3-1.7-3.3-3.1-5.7-3.1c-2,0-3.7,0.9-3.7,2.4c0,1.7,2.4,2.8,6.3,4.4c4.2,1.5,9,3.9,9,10.1
			c0,5.7-5.2,8.7-11.4,8.7c-5.9,0-10.9-4.2-11.8-9l5.5-2.4C283.2,46.7,286.3,48.4,289.1,48.4z"/>
	</g>
</g>
</svg>
